<svg id="Logo" xmlns="http://www.w3.org/2000/svg" xmlns:xlink="http://www.w3.org/1999/xlink" viewBox="0 0 1920 1080"><defs><style>.cls-1{fill:url(#Unbenannter_Verlauf_120);}.cls-2{fill:url(#Unbenannter_Verlauf_86);}.cls-3{font-size:155.04px;fill:#41b283;font-family:MyriadPro-Bold, Myriad Pro;font-weight:700;}.cls-4,.cls-5{fill:#593a7d;}.cls-4{letter-spacing:-0.03em;}.cls-6{font-size:46.41px;font-family:MyriadPro-Regular, Myriad Pro;letter-spacing:0.33em;}.cls-6,.cls-9{fill:#fff;}.cls-7{letter-spacing:0.32em;}.cls-8{fill:#1d1d1b;}.cls-10{fill:url(#Unbenannter_Verlauf_56);}.cls-11{fill:url(#Unbenannter_Verlauf_131);}.cls-12{fill:none;stroke:#1d1d1b;stroke-miterlimit:10;stroke-width:5px;}</style><radialGradient id="Unbenannter_Verlauf_120" cx="846.78" cy="540" r="565.39" gradientTransform="translate(-661.9) scale(2.57 1)" gradientUnits="userSpaceOnUse"><stop offset="0" stop-color="#69c1bb"/><stop offset="0.03" stop-color="#61b8b3"/><stop offset="0.11" stop-color="#4fa2a0"/><stop offset="0.2" stop-color="#419191"/><stop offset="0.32" stop-color="#378687"/><stop offset="0.48" stop-color="#327f81"/><stop offset="0.93" stop-color="#307d7f"/></radialGradient><radialGradient id="Unbenannter_Verlauf_86" cx="1330.32" r="565.39" gradientTransform="matrix(1, 0, 0, 1, 0, 0)" xlink:href="#Unbenannter_Verlauf_120"/><radialGradient id="Unbenannter_Verlauf_56" cx="1330.32" cy="554.33" r="58.09" gradientUnits="userSpaceOnUse"><stop offset="0" stop-color="#fde8ad"/><stop offset="0.53" stop-color="#fce6ac"/><stop offset="0.72" stop-color="#f8dfaa"/><stop offset="0.85" stop-color="#f0d4a5"/><stop offset="0.96" stop-color="#e6c39e"/><stop offset="1" stop-color="#e1bb9b"/></radialGradient><radialGradient id="Unbenannter_Verlauf_131" cx="1691.66" cy="779.44" r="58.09" gradientTransform="translate(2151.41 1300.11) rotate(180)" gradientUnits="userSpaceOnUse"><stop offset="0" stop-color="#878787"/><stop offset="0.48" stop-color="#858585"/><stop offset="0.65" stop-color="#7e7e7e"/><stop offset="0.77" stop-color="#737373"/><stop offset="0.87" stop-color="#626262"/><stop offset="0.95" stop-color="#4d4d4c"/><stop offset="1" stop-color="#3c3c3b"/></radialGradient></defs><rect class="cls-1" width="3036.32" height="1080"/><rect class="cls-2" x="740.64" width="1179.36" height="1080"/><g id="Text"><text class="cls-3" transform="translate(911.57 876.69)">Simplify<tspan class="cls-4" x="571.31" y="0">V</tspan><tspan class="cls-5" x="665.26" y="0">ue</tspan></text><text class="cls-6" transform="translate(1089.99 942.2)">Keep it simpl<tspan class="cls-7" x="451.34" y="0">e</tspan><tspan x="489.58" y="0">...</tspan></text></g><g id="Glühbirne"><rect id="Kabel" class="cls-8" x="1326.1" width="8.44" height="436.64"/><polygon id="Fassung-Innen" class="cls-9" points="1355.63 492.28 1305.01 492.28 1312.24 480.74 1348.4 480.74 1355.63 492.28"/><rect id="Fassung" class="cls-8" x="1305.01" y="436.64" width="50.63" height="50.63"/><path id="Glühbirne-2" data-name="Glühbirne" class="cls-10" d="M1352.45,492.28h-44.26c-3.18,28.38-31.71,39.5-31.71,70.1,0,57.3,53.84,54,53.84,54s53.84,3.34,53.84-54C1384.16,531.78,1355.63,520.66,1352.45,492.28Z"/></g><g id="Glühbirne_-_Grau" data-name="Glühbirne - Grau"><path id="Glühbirne-3" data-name="Glühbirne" class="cls-11" d="M437.62,582.72h44.25c3.19-28.38,31.71-39.5,31.71-70.1,0-57.3-53.83-54-53.83-54s-53.84-3.34-53.84,54C405.91,543.22,434.43,554.34,437.62,582.72Z"/><polygon id="Fassung-Innen-2" data-name="Fassung-Innen" class="cls-9" points="434.44 582.72 485.06 582.72 477.83 594.26 441.67 594.26 434.44 582.72"/><rect id="Fassung-2" data-name="Fassung" class="cls-8" x="434.43" y="587.73" width="50.63" height="50.63" transform="translate(919.49 1226.09) rotate(180)"/><path id="Kabel-2" data-name="Kabel" class="cls-12" d="M505,1080c0-50.64,53.27-64,31.65-86.11s-116.58-8.44-116,17.41,108.13,29.54,135.56,2.11,51.17-125-41.67-144-103.38,86.5-101.8,97.05,24.26,46.95,73.32,37.45,85.45-53.27,56.44-72.79-196.75,4.22-193.58,34.29,41.67,65.93,76.48,62.77,80.7-45.37,71.21-87.56-20.57-87.57-73.85-87-58,59.08-58,59.08,36.92,66.46,115,52.22,117.1-34.29,125.54-72.79S587.79,781.32,530.82,784,431.13,916.88,426.91,935.34,313.51,850.42,296.1,821.93s184.09-6.85,203.08,32.18,11.6,53.27,21.62,63.3S651.09,824,622.08,786.59s-120.27-40.08-211-33.75-130.29,115.51-125,145.58S386.3,896.84,428,896.31s128.7,5.27,150.33-10.55,22.15-71.21,6.85-112.35,6.33-49.06-13.18-68-86.51,35.34-112.88,36.93-81.76-7.39-103.39,16.35S328.27,843,351,858.86,602.56,875.74,631,851s15.17,19,4.22,28.48S589.9,921.63,524,913.71s-107.08,0-101.28-53.8,60.66-88.09,93.36-92.83S601,765,625.77,753.36s-1.19-27.63-21.1-20-29.54,36.39-73.85,43.25-98.63-98.64-164.57-81.76-60.13,55.92-60.13,55.92,12.13,63.82,111.3,44.83,44.31-79,44.31-157.64"/></g></svg>