<svg id="Logo" xmlns="http://www.w3.org/2000/svg" xmlns:xlink="http://www.w3.org/1999/xlink" viewBox="0 0 1179.36 1080"><defs><style>.cls-1{fill:url(#Unbenannter_Verlauf_69);}.cls-2{font-size:155.04px;fill:#41b283;font-family:MyriadPro-Bold, Myriad Pro;font-weight:700;}.cls-3,.cls-4{fill:#593a7d;}.cls-3{letter-spacing:-0.03em;}.cls-5{font-size:46.41px;font-family:MyriadPro-Regular, Myriad Pro;letter-spacing:0.33em;}.cls-5,.cls-8{fill:#fff;}.cls-6{letter-spacing:0.32em;}.cls-7{fill:#1d1d1b;}.cls-9{fill:url(#Unbenannter_Verlauf_56);}</style><radialGradient id="Unbenannter_Verlauf_69" cx="589.68" cy="540" r="565.39" gradientUnits="userSpaceOnUse"><stop offset="0" stop-color="#69c1bb"/><stop offset="1" stop-color="#307d7f"/></radialGradient><radialGradient id="Unbenannter_Verlauf_56" cx="589.68" cy="554.33" r="58.09" gradientUnits="userSpaceOnUse"><stop offset="0" stop-color="#fde8ad"/><stop offset="0.53" stop-color="#fce6ac"/><stop offset="0.72" stop-color="#f8dfaa"/><stop offset="0.85" stop-color="#f0d4a5"/><stop offset="0.96" stop-color="#e6c39e"/><stop offset="1" stop-color="#e1bb9b"/></radialGradient></defs><rect class="cls-1" width="1179.36" height="1080"/><g id="Text"><text class="cls-2" transform="translate(170.93 876.69)">Simplify<tspan class="cls-3" x="571.31" y="0">V</tspan><tspan class="cls-4" x="665.26" y="0">ue</tspan></text><text class="cls-5" transform="translate(349.35 942.2)">Keep it simpl<tspan class="cls-6" x="451.34" y="0">e</tspan><tspan x="489.58" y="0">...</tspan></text></g><rect id="Kabel" class="cls-7" x="585.46" width="8.44" height="436.64"/><polygon id="Fassung-Innen" class="cls-8" points="614.99 492.28 564.37 492.28 571.6 480.74 607.76 480.74 614.99 492.28"/><rect id="Fassung" class="cls-7" x="564.37" y="436.64" width="50.63" height="50.63"/><path id="Glühbirne" class="cls-9" d="M611.81,492.28H567.55c-3.18,28.38-31.71,39.5-31.71,70.1,0,57.3,53.84,54,53.84,54s53.84,3.34,53.84-54C643.52,531.78,615,520.66,611.81,492.28Z"/></svg>